<?xml version="1.0" encoding="UTF-8" standalone="no"?>
<!DOCTYPE svg PUBLIC "-//W3C//DTD SVG 1.1//EN" "http://www.w3.org/Graphics/SVG/1.1/DTD/svg11.dtd">
<svg width="100%" height="100%" viewBox="0 0 1000 1000" version="1.1" xmlns="http://www.w3.org/2000/svg" xmlns:xlink="http://www.w3.org/1999/xlink" xml:space="preserve" xmlns:serif="http://www.serif.com/" style="fill-rule:evenodd;clip-rule:evenodd;stroke-linejoin:round;stroke-miterlimit:2;">
    <g transform="matrix(2.38904,0,0,3.5625,-359.866,-153.256)">
        <rect x="150.632" y="43.019" width="418.578" height="280.701" style="fill:url(#_Linear1);"/>
    </g>
    <g transform="matrix(1,0,0,1,12.5625,-327.438)">
        <g transform="matrix(458.333,0,0,458.333,0,1000)">
            <path d="M0.064,-0L0.064,-0.754L0.342,-0.754C0.447,-0.753 0.538,-0.717 0.613,-0.644C0.688,-0.571 0.725,-0.482 0.725,-0.376C0.725,-0.27 0.687,-0.181 0.612,-0.109C0.537,-0.036 0.447,-0 0.342,-0L0.064,-0ZM0.26,-0.588L0.26,-0.166L0.304,-0.166C0.363,-0.165 0.413,-0.182 0.457,-0.216C0.5,-0.249 0.521,-0.303 0.521,-0.376C0.521,-0.443 0.501,-0.495 0.461,-0.532C0.421,-0.569 0.369,-0.587 0.306,-0.587L0.26,-0.588Z" style="fill:#fff;fill-rule:nonzero;"/>
        </g>
        <g transform="matrix(458.333,0,0,458.333,344.667,1000)">
            <path d="M0.26,-0.754L0.26,-0.166L0.495,-0.166L0.495,-0L0.064,-0L0.064,-0.754L0.26,-0.754Z" style="fill:#fff;fill-rule:nonzero;"/>
        </g>
        <g transform="matrix(458.333,0,0,458.333,571.542,1000)">
            <path d="M0.427,-0.421L0.816,-0.421C0.815,-0.366 0.811,-0.314 0.802,-0.266C0.793,-0.217 0.772,-0.169 0.739,-0.122C0.702,-0.071 0.657,-0.033 0.604,-0.01C0.55,0.013 0.491,0.025 0.428,0.025C0.309,0.025 0.213,-0.012 0.138,-0.085C0.063,-0.158 0.026,-0.253 0.026,-0.372C0.026,-0.495 0.064,-0.593 0.14,-0.667C0.215,-0.741 0.314,-0.778 0.435,-0.778C0.512,-0.778 0.58,-0.761 0.639,-0.726C0.697,-0.691 0.742,-0.638 0.775,-0.567L0.589,-0.49C0.576,-0.525 0.555,-0.554 0.527,-0.576C0.499,-0.598 0.465,-0.609 0.426,-0.609C0.365,-0.609 0.319,-0.586 0.286,-0.541C0.253,-0.496 0.234,-0.446 0.231,-0.392C0.23,-0.389 0.23,-0.385 0.23,-0.382L0.23,-0.365C0.231,-0.308 0.249,-0.255 0.283,-0.207C0.317,-0.159 0.366,-0.135 0.429,-0.135C0.472,-0.135 0.508,-0.146 0.537,-0.168C0.566,-0.19 0.583,-0.223 0.587,-0.266L0.427,-0.267L0.427,-0.421Z" style="fill:#fff;fill-rule:nonzero;"/>
        </g>
    </g>
    <defs>
        <linearGradient id="_Linear1" x1="0" y1="0" x2="1" y2="0" gradientUnits="userSpaceOnUse" gradientTransform="matrix(203.601,-145.226,216.558,136.537,208.942,284.705)"><stop offset="0" style="stop-color:#79ab4b;stop-opacity:1"/><stop offset="1" style="stop-color:#436034;stop-opacity:1"/></linearGradient>
    </defs>
</svg>
